<svg width="24.000000000000004" height="24.000000000000004" xmlns="http://www.w3.org/2000/svg">

 <g>
  <title>background</title>
  <rect fill="none" id="canvas_background" height="402" width="582" y="-1" x="-1"/>
 </g>
 <g>
  <title>Layer 1</title>
  <path id="svg_1" stroke-linejoin="round" stroke-linecap="round" stroke-width="2" stroke="black" d="m6.5,13l0.78446,1.5689c0.26549,0.531 0.39823,0.7965 0.57557,1.0265c0.15736,0.2042 0.34038,0.3872 0.544519,0.5446c0.23007,0.177301 0.49555,0.310101 1.02653,0.5755l1.56892,0.7845l-1.56892,0.7845c-0.53098,0.2654 -0.79646,0.398199 -1.02653,0.5755c-0.20414,0.1574 -0.387159,0.340399 -0.544519,0.5446c-0.17734,0.23 -0.31008,0.495501 -0.57557,1.026501l-0.78446,1.568899l-0.78446,-1.568899c-0.26549,-0.531 -0.39823,-0.796501 -0.57557,-1.026501c-0.15736,-0.204201 -0.34038,-0.387199 -0.54452,-0.5446c-0.23007,-0.177301 -0.49555,-0.310101 -1.02653,-0.5755l-1.56892,-0.7845l1.56892,-0.7845c0.53098,-0.2654 0.79646,-0.398199 1.02653,-0.5755c0.20414,-0.157399 0.38716,-0.3404 0.54452,-0.5446c0.17734,-0.23 0.31008,-0.4955 0.57557,-1.0265l0.78446,-1.5689z"/>
  <path id="svg_2" stroke-linejoin="round" stroke-linecap="round" stroke-width="2" stroke="black" d="m15,2l1.1786,3.06442c0.282,0.73323 0.423,1.09984 0.6423,1.40822c0.194401,0.27331 0.4331,0.51211 0.706501,0.70645c0.3083,0.21927 0.674999,0.36028 1.408199,0.64229l3.0644,1.17862l-3.0644,1.1786c-0.7332,0.282 -1.099899,0.422999 -1.408199,0.6423c-0.273401,0.1944 -0.5121,0.4331 -0.706501,0.7065c-0.219299,0.3083 -0.3603,0.675 -0.6423,1.4082l-1.1786,3.0644l-1.1786,-3.0644c-0.282,-0.7332 -0.422999,-1.0999 -0.6423,-1.4082c-0.1944,-0.2734 -0.4331,-0.5121 -0.7065,-0.7065c-0.3083,-0.2193 -0.675,-0.3603 -1.4082,-0.6423l-3.0644,-1.1786l3.0644,-1.17862c0.7332,-0.28201 1.0999,-0.42302 1.4082,-0.64229c0.2734,-0.19434 0.5121,-0.43314 0.7065,-0.70645c0.2193,-0.30838 0.3603,-0.67499 0.6423,-1.40822l1.1786,-3.06442z"/>
  <polyline stroke-linecap="round" id="svg_3" points="6.538361682808921,16.951673715670967 6.538361682808921,16.951673715670967 " stroke-width="1.5" stroke="#000" fill="none"/>
 </g>
</svg>